Coordinates
version=1
nRows=49
nColumns=12
inDegrees=yes

Units are S.I. units (second, meters, Newtons, ...)
Angles are in degrees

endheader
time	SC_y	SC_z	SC_x	AC_y	AC_z	AC_x	GH_y	GH_z	GH_yy	EL_x	PS_y
       0.0              -33.14          9.363          57.87          46.08         -18.96          16.57          31.68          41.15          97.87          11.13          76.02
 0.0007982              -33.14          9.367          57.86          46.08         -18.96          16.57          31.69          41.15          97.86          11.14          76.02
  0.001596              -33.14          9.371          57.86          46.08         -18.96          16.56          31.71          41.14          97.85          11.15          76.01
  0.002395              -33.14          9.376          57.86          46.08         -18.95          16.56          31.73          41.14          97.84          11.17           76.0
  0.003193              -33.14           9.38          57.85          46.08         -18.95          16.56          31.75          41.13          97.83          11.18           76.0
  0.003991              -33.14          9.385          57.85          46.08         -18.95          16.55          31.76          41.13          97.82           11.2          75.99
  0.004789              -33.14          9.391          57.84          46.08         -18.94          16.55          31.79          41.12          97.81          11.22          75.98
  0.005588              -33.14          9.396          57.84          46.08         -18.94          16.54          31.81          41.12           97.8          11.24          75.98
  0.006386              -33.14          9.403          57.83          46.08         -18.93          16.54          31.83          41.11          97.78          11.26          75.97
  0.007184              -33.14          9.409          57.82          46.08         -18.93          16.53          31.86           41.1          97.77          11.28          75.96
  0.007982              -33.14          9.416          57.82          46.08         -18.93          16.53          31.89           41.1          97.76           11.3          75.95
  0.008781              -33.14          9.424          57.81          46.08         -18.92          16.52          31.92          41.09          97.74          11.32          75.94
  0.009579              -33.14          9.432           57.8          46.08         -18.91          16.52          31.95          41.08          97.72          11.35          75.93
   0.01038              -33.14          9.441          57.79          46.08         -18.91          16.51          31.98          41.07           97.7          11.38          75.91
   0.01118              -33.14           9.45          57.79          46.08          -18.9           16.5          32.02          41.06          97.68          11.41           75.9
   0.01197              -33.14          9.461          57.78          46.08         -18.89          16.49          32.06          41.05          97.66          11.44          75.89
   0.01277              -33.14          9.472          57.77          46.08         -18.89          16.49           32.1          41.04          97.64          11.48          75.87
   0.01357              -33.15          9.484          57.75          46.08         -18.88          16.48          32.15          41.03          97.61          11.52          75.85
   0.01437              -33.15          9.498          57.74          46.08         -18.87          16.47          32.21          41.01          97.58          11.56          75.84
   0.01517              -33.15          9.512          57.73          46.08         -18.86          16.45          32.26           41.0          97.55          11.61          75.82
   0.01596              -33.15          9.528          57.71          46.08         -18.85          16.44          32.33          40.98          97.51          11.66          75.79
   0.01676              -33.15          9.546           57.7          46.09         -18.84          16.43           32.4          40.96          97.48          11.72          75.77
   0.01756              -33.15          9.566          57.68          46.09         -18.82          16.41          32.47          40.94          97.43          11.78          75.74
   0.01836              -33.15          9.588          57.66          46.09         -18.81           16.4          32.56          40.92          97.39          11.86          75.71
   0.01916              -33.15          9.612          57.63          46.09         -18.79          16.38          32.65           40.9          97.33          11.93          75.68
   0.01996              -33.15          9.639          57.61          46.09         -18.77          16.36          32.76          40.87          97.28          12.02          75.64
   0.02075              -33.15          9.669          57.58          46.09         -18.75          16.33          32.88          40.84          97.21          12.12           75.6
   0.02155              -33.15          9.703          57.55          46.09         -18.73          16.31          33.01           40.8          97.14          12.23          75.55
   0.02235              -33.16          9.741          57.51          46.09          -18.7          16.28          33.16          40.76          97.05          12.35           75.5
   0.02315              -33.16          9.785          57.47           46.1         -18.67          16.25          33.33          40.72          96.96           12.5          75.44
   0.02395              -33.16          9.834          57.43           46.1         -18.64          16.21          33.53          40.67          96.85          12.66          75.37
   0.02475              -33.16          9.891          57.37           46.1          -18.6          16.16          33.75          40.61          96.73          12.84          75.29
   0.02554              -33.16          9.957          57.31           46.1         -18.55          16.11          34.01          40.54          96.59          13.06           75.2
   0.02634              -33.17          10.03          57.24          46.11          -18.5          16.05          34.31          40.46          96.42           13.3           75.1
   0.02714              -33.17          10.12          57.16          46.11         -18.44          15.98          34.66          40.37          96.23          13.59          74.97
   0.02794              -33.18          10.23          57.06          46.12         -18.37           15.9          35.08          40.26           96.0          13.94          74.83
   0.02874              -33.18          10.35          56.94          46.12         -18.28          15.81          35.57          40.13          95.73          14.34          74.65
   0.02953              -33.19           10.5           56.8          46.13         -18.18          15.69          36.16          39.97          95.41          14.83          74.45
   0.03033              -33.19          10.69          56.63          46.14         -18.05          15.55          36.87          39.79          95.02          15.42           74.2
   0.03113               -33.2          10.91          56.42          46.15          -17.9          15.38          37.74          39.56          94.54          16.14          73.89
   0.03193              -33.21          11.18          56.17          46.16         -17.71          15.17          38.82          39.27          93.95          17.03          73.51
   0.03273              -33.23          11.53          55.85          46.18         -17.48          14.91          40.16          38.92          93.21          18.14          73.04
   0.03353              -33.25          11.96          55.45           46.2         -17.18          14.57          41.85          38.48          92.28          19.54          72.44
   0.03432              -33.27           12.5          54.93          46.22         -16.81          14.15           44.0          37.91           91.1          21.32          71.69
   0.03512               -33.3           13.2          54.28          46.26         -16.32          13.61          46.75          37.19          89.59           23.6          70.72
   0.03592              -33.33           14.1          53.44           46.3         -15.71          12.92          50.28          36.26          87.65          26.52          69.48
   0.03672              -33.38          15.25          52.37          46.35         -14.92          12.04          54.79          35.07          85.17          30.25          67.89
   0.03752              -33.44           16.7          51.02          46.42         -13.93          10.93          60.46          33.58          82.05          34.93           65.9
   0.03832              -33.51          18.46          49.37           46.5         -12.72          9.572          67.37          31.76          78.26          40.65          63.47
